<mxfile host="app.diagrams.net" agent="Mozilla/5.0 (Windows NT 10.0; Win64; x64) AppleWebKit/537.36 (KHTML, like Gecko) Chrome/129.0.0.0 Safari/537.36" version="24.7.16">
  <diagram name="Page-1" id="aU9dI6DdmgmlDsZcrYt8">
    <mxGraphModel dx="1050" dy="557" grid="1" gridSize="10" guides="1" tooltips="1" connect="1" arrows="1" fold="1" page="1" pageScale="1" pageWidth="850" pageHeight="1100" math="0" shadow="0">
      <root>
        <mxCell id="0" />
        <mxCell id="1" parent="0" />
        <mxCell id="FCh0x5HBT2-zmkQmTLcx-15" style="edgeStyle=orthogonalEdgeStyle;rounded=0;orthogonalLoop=1;jettySize=auto;html=1;entryX=0.5;entryY=1;entryDx=0;entryDy=0;" edge="1" parent="1" source="FCh0x5HBT2-zmkQmTLcx-1" target="FCh0x5HBT2-zmkQmTLcx-4">
          <mxGeometry relative="1" as="geometry">
            <mxPoint x="480" y="360" as="targetPoint" />
          </mxGeometry>
        </mxCell>
        <mxCell id="FCh0x5HBT2-zmkQmTLcx-1" value="Top Seller DB" style="shape=cylinder3;whiteSpace=wrap;html=1;boundedLbl=1;backgroundOutline=1;size=15;" vertex="1" parent="1">
          <mxGeometry x="450" y="390" width="60" height="80" as="geometry" />
        </mxCell>
        <mxCell id="FCh0x5HBT2-zmkQmTLcx-3" value="Exponential decay or some similar decay to rank the top sellers giving lower weight to older sales" style="text;html=1;align=center;verticalAlign=middle;whiteSpace=wrap;rounded=0;" vertex="1" parent="1">
          <mxGeometry x="10" y="90" width="510" height="30" as="geometry" />
        </mxCell>
        <mxCell id="FCh0x5HBT2-zmkQmTLcx-14" style="edgeStyle=orthogonalEdgeStyle;rounded=0;orthogonalLoop=1;jettySize=auto;html=1;" edge="1" parent="1" source="FCh0x5HBT2-zmkQmTLcx-4" target="FCh0x5HBT2-zmkQmTLcx-1">
          <mxGeometry relative="1" as="geometry" />
        </mxCell>
        <mxCell id="FCh0x5HBT2-zmkQmTLcx-4" value="Cache" style="shape=process;whiteSpace=wrap;html=1;backgroundOutline=1;" vertex="1" parent="1">
          <mxGeometry x="420" y="290" width="120" height="60" as="geometry" />
        </mxCell>
        <mxCell id="FCh0x5HBT2-zmkQmTLcx-11" style="edgeStyle=orthogonalEdgeStyle;rounded=0;orthogonalLoop=1;jettySize=auto;html=1;" edge="1" parent="1" source="FCh0x5HBT2-zmkQmTLcx-9" target="FCh0x5HBT2-zmkQmTLcx-10">
          <mxGeometry relative="1" as="geometry" />
        </mxCell>
        <mxCell id="FCh0x5HBT2-zmkQmTLcx-9" value="Orders DB" style="shape=cylinder3;whiteSpace=wrap;html=1;boundedLbl=1;backgroundOutline=1;size=15;" vertex="1" parent="1">
          <mxGeometry x="40" y="390" width="60" height="80" as="geometry" />
        </mxCell>
        <mxCell id="FCh0x5HBT2-zmkQmTLcx-10" value="Streaming solution&lt;div&gt;to derive the top sellers&lt;/div&gt;" style="shape=process;whiteSpace=wrap;html=1;backgroundOutline=1;" vertex="1" parent="1">
          <mxGeometry x="160" y="415" width="180" height="30" as="geometry" />
        </mxCell>
        <mxCell id="FCh0x5HBT2-zmkQmTLcx-12" style="edgeStyle=orthogonalEdgeStyle;rounded=0;orthogonalLoop=1;jettySize=auto;html=1;exitX=1;exitY=0.5;exitDx=0;exitDy=0;entryX=0;entryY=0.5;entryDx=0;entryDy=0;entryPerimeter=0;" edge="1" parent="1" source="FCh0x5HBT2-zmkQmTLcx-10" target="FCh0x5HBT2-zmkQmTLcx-1">
          <mxGeometry relative="1" as="geometry" />
        </mxCell>
        <mxCell id="FCh0x5HBT2-zmkQmTLcx-13" value="" style="group" vertex="1" connectable="0" parent="1">
          <mxGeometry x="390" y="180" width="180" height="80" as="geometry" />
        </mxCell>
        <mxCell id="FCh0x5HBT2-zmkQmTLcx-5" value="" style="shape=hexagon;perimeter=hexagonPerimeter2;whiteSpace=wrap;html=1;fixedSize=1;" vertex="1" parent="FCh0x5HBT2-zmkQmTLcx-13">
          <mxGeometry width="120" height="80" as="geometry" />
        </mxCell>
        <mxCell id="FCh0x5HBT2-zmkQmTLcx-6" value="" style="shape=hexagon;perimeter=hexagonPerimeter2;whiteSpace=wrap;html=1;fixedSize=1;" vertex="1" parent="FCh0x5HBT2-zmkQmTLcx-13">
          <mxGeometry x="20" width="120" height="80" as="geometry" />
        </mxCell>
        <mxCell id="FCh0x5HBT2-zmkQmTLcx-7" value="" style="shape=hexagon;perimeter=hexagonPerimeter2;whiteSpace=wrap;html=1;fixedSize=1;" vertex="1" parent="FCh0x5HBT2-zmkQmTLcx-13">
          <mxGeometry x="40" width="120" height="80" as="geometry" />
        </mxCell>
        <mxCell id="FCh0x5HBT2-zmkQmTLcx-8" value="API Servers&lt;div&gt;GET/topSeller&lt;/div&gt;" style="shape=hexagon;perimeter=hexagonPerimeter2;whiteSpace=wrap;html=1;fixedSize=1;size=30;" vertex="1" parent="FCh0x5HBT2-zmkQmTLcx-13">
          <mxGeometry x="60" width="120" height="80" as="geometry" />
        </mxCell>
        <mxCell id="FCh0x5HBT2-zmkQmTLcx-16" style="edgeStyle=orthogonalEdgeStyle;rounded=0;orthogonalLoop=1;jettySize=auto;html=1;exitX=0.375;exitY=1;exitDx=0;exitDy=0;entryX=0.5;entryY=0;entryDx=0;entryDy=0;" edge="1" parent="1" source="FCh0x5HBT2-zmkQmTLcx-7" target="FCh0x5HBT2-zmkQmTLcx-4">
          <mxGeometry relative="1" as="geometry" />
        </mxCell>
      </root>
    </mxGraphModel>
  </diagram>
</mxfile>
